/* XPM */
static char *_4be281fe02f48ed9673214c6dc1bca8[] = {
/* columns rows colors chars-per-pixel */
"64 64 256 2 ",
"   c #0D0F23",
".  c #0E0F2C",
"X  c #0E1025",
"o  c #0F102C",
"O  c #121327",
"+  c #11122B",
"@  c #0E0E32",
"#  c #0C0E3B",
"$  c #0E1034",
"%  c #0D113B",
"&  c #131434",
"*  c #12143C",
"=  c #1A1B3D",
"-  c #17183A",
";  c #0D0F40",
":  c #0D1343",
">  c #0E1847",
",  c #0F144A",
"<  c #0E1A4C",
"1  c #121443",
"2  c #161846",
"3  c #11144C",
"4  c #121A4D",
"5  c #1A1C4E",
"6  c #1F1F44",
"7  c #0F1B51",
"8  c #0F1750",
"9  c #111653",
"0  c #111D54",
"q  c #121C5B",
"w  c #1A1D5C",
"e  c #151957",
"r  c #0F2153",
"t  c #0E235A",
"y  c #102255",
"u  c #11245B",
"i  c #10285E",
"p  c #1C205F",
"a  c #202040",
"s  c #151B63",
"d  c #1A1E64",
"f  c #161D6C",
"g  c #1B1F6B",
"h  c #191E74",
"j  c #191F7A",
"k  c #132464",
"l  c #1C2064",
"z  c #122C64",
"x  c #14256C",
"c  c #1C206D",
"v  c #142C6D",
"b  c #13336B",
"n  c #1B2173",
"m  c #152D71",
"M  c #1B217C",
"N  c #162677",
"B  c #0F3E7F",
"V  c #153573",
"C  c #153975",
"Z  c #17347C",
"A  c #163D7A",
"S  c #282B67",
"D  c #222677",
"F  c #16427D",
"G  c #18417E",
"H  c #1B2384",
"J  c #1D268B",
"K  c #1B2B8D",
"L  c #183E85",
"P  c #1B338B",
"I  c #173885",
"U  c #1F2692",
"Y  c #1D2D93",
"T  c #1D3395",
"R  c #1B3B93",
"E  c #1D349A",
"W  c #1E389D",
"Q  c #212683",
"!  c #24298B",
"~  c #202894",
"^  c #22299D",
"/  c #202790",
"(  c #213E9F",
")  c #1F3CA3",
"_  c #222BA6",
"`  c #2136A3",
"'  c #203FA6",
"]  c #213EA9",
"[  c #2433AC",
"{  c #2737B4",
"}  c #0D4083",
"|  c #154583",
" . c #184483",
".. c #1A418B",
"X. c #164A8D",
"o. c #194B8B",
"O. c #164589",
"+. c #1B4693",
"@. c #1A4E91",
"#. c #1D4E9C",
"$. c #154B95",
"%. c #1A5295",
"&. c #16529C",
"*. c #1B559A",
"=. c #1C589E",
"-. c #2E5B8F",
";. c #265C99",
":. c #2F649E",
">. c #366697",
",. c #1E47A8",
"<. c #1D54A3",
"1. c #1D5CA3",
"2. c #1F54AB",
"3. c #1E5DA9",
"4. c #1751A4",
"5. c #2142AC",
"6. c #2449A8",
"7. c #2155A8",
"8. c #2245B1",
"9. c #224AB4",
"0. c #244DBA",
"q. c #245BB2",
"w. c #2450BA",
"e. c #245CBE",
"r. c #2854BD",
"t. c #1E61A6",
"y. c #1E63AB",
"u. c #1E6AB3",
"i. c #2065AC",
"p. c #2169AF",
"a. c #2265B4",
"s. c #226CB3",
"d. c #286CBB",
"f. c #2465B9",
"g. c #2471B6",
"h. c #2574BA",
"j. c #2975BA",
"k. c #2579BD",
"l. c #2C7BBE",
"z. c #3A74B6",
"x. c #4C7DAE",
"c. c #447CB5",
"v. c #2A34C1",
"b. c #2E39D6",
"n. c #333DE1",
"m. c #2B4EC3",
"M. c #2454C3",
"N. c #2955C3",
"B. c #295AC4",
"V. c #2456C8",
"C. c #255BCA",
"Z. c #2B5DCB",
"A. c #255DD1",
"S. c #2B64CC",
"D. c #2768C5",
"F. c #277DC1",
"G. c #2E7EC0",
"H. c #2778CB",
"J. c #2761D4",
"K. c #2A63D2",
"L. c #276FD5",
"P. c #2866D8",
"I. c #2A6CDA",
"U. c #2763DB",
"Y. c #2B7AD2",
"T. c #2D73D9",
"R. c #2771D2",
"E. c #3278DA",
"W. c #3540ED",
"Q. c #3642F7",
"!. c #296CE2",
"~. c #2A73E6",
"^. c #2B73E8",
"/. c #327EE5",
"(. c #2B7CF3",
"). c #2A73F0",
"_. c #2C80BE",
"`. c #338ABF",
"'. c #5788B1",
"]. c #618EB4",
"[. c #2C83C2",
"{. c #2E8AC6",
"}. c #2C89CA",
"|. c #2982C7",
" X c #3183C3",
".X c #318CC6",
"XX c #318FC9",
"oX c #2D91CC",
"OX c #3590C5",
"+X c #3393CA",
"@X c #3699CD",
"#X c #399CCD",
"$X c #2F96D4",
"%X c #2E96DB",
"&X c #329CD4",
"*X c #2B85D7",
"=X c #31A2DD",
"-X c #39A5D4",
";X c #3CB4DF",
":X c #2E88E7",
">X c #368AE8",
",X c #359DEB",
"<X c #2E83FC",
"1X c #2F89FE",
"2X c #3183F1",
"3X c #308CFE",
"4X c #3087FF",
"5X c #2E9DFE",
"6X c #3193FD",
"7X c #329BFD",
"8X c #2FA6E0",
"9X c #32A3E4",
"0X c #3EBAE3",
"qX c #35A3F4",
"wX c #35A4FE",
"eX c #37ACFD",
"rX c #3BACFD",
"tX c #3BA3F7",
"yX c #38B4FD",
"uX c #3ABDFE",
"iX c #3CBAF3",
"pX c #4484C9",
"aX c #68A4D8",
"sX c #43B9E4",
"dX c #44BBFD",
"fX c #40B3FF",
"gX c #3BC4FD",
"hX c #3DCBFE",
"jX c #3FD2FF",
"kX c #47C9E7",
"lX c #49C6FB",
"zX c #42CFFD",
"xX c #49C9FD",
"cX c #54C7FD",
"vX c #4AD9F3",
"bX c #42D6FE",
"nX c #4BD2FE",
"mX c #45DEFD",
"MX c #4CDCFC",
"NX c #45D1F0",
"BX c #52DDFD",
"VX c #56D8F9",
"CX c #4BD6EE",
"ZX c #4CE3FD",
"AX c #4FE9FE",
"SX c #5AE1FA",
"DX c #53EDFE",
"FX c #5DECFD",
"GX c #56E3FB",
"HX c #52F3FF",
"JX c #56F9FE",
"KX c #6FE3FB",
"LX c #68F8FE",
"PX c #8FFFFA",
"IX c #90FFFD",
"UX c None",
/* pixels */
"UXUXUXUXUXUXUXUXUXUXUXUXUXUXUXUXUXUXUXUXUXUXUXUXUXUXUXUXUXUXUXUXUXUXUXUXUXUXUXUXUXUXUXUXUXUXUXUXUXUXUXUXUXUXUXUXUXUXUXUXUXUXUXUX",
"UXUXUXUXUXUXUXUXUXUXUXUXUXUXUXUXUXUXUXUXUXUXUXUXUXUXUXUXUXUXUXUXUXUXUXUXUXUXUXUXUXUXUXUXUXUXUXUXUXUXUXUXUXUXUXUXUXUXUXUXUXUXUXUX",
"UXUXUXUXUXUXUXUXUXUXUXUXUXUXUXUXUXUXUXUXUXUXUXUXUXUXUXUXUXUXUXUXUXUXUXUXUXUXUXUXUXUXUXUXUXUXUXUXUXUXUXUXUXUXUXUXUXUXUXUXUXUXUXUX",
"UXUXUXUXUXUXUXUXUXUXUXUXUXUXUXUXUXUXUXUXUXUXUXUXUXUXUXUXUXUXUXUXUXUXUXUXUXUXUXUXUXUXUXUXUXUXUXUXUXUXUXUXUXUXUXUXUXUXUXUXUXUXUXUX",
"UXUXUXUXUXUXUXUXUXUXUXUXUXUXUXUXUXUXUXUXUXUXUXUX> 0 r y r Z V.C.J.P.!.^.UXUXUXUXUXUXUXUXUXUXUXUXUXUXUXUXUXUXUXUXUXUXUXUXUXUXUXUX",
"UXUXUXUXUXUXUXUXUXUXUXUXUXUXUXUXUXUXUXUXUXUXUXUX> < r y y ,.B.C.A.P.!.^.UXUXUXUXUXUXUXUXUXUXUXUXUXUXUXUXUXUXUXUXUXUXUXUXUXUXUXUX",
"UXUXUXUXUXUXUXUXUXUXUXUXUXUXUXUXUXUXUXUXUXUXUXs 0 < y r r L V.C.J.P.!.^.(.UXUXUXUXUXUXUXUXUXUXUXUXUXUXUXUXUXUXUXUXUXUXUXUXUXUXUX",
"UXUXUXUXUXUXUXUXUXUXUXUXUXUXUXUXUXUXUXUXUXUX% 8 k > 0 k v m Z.K.A.P.!.!.).(.UXUXUXUXUXUXUXUXUXUXUXUXUXUXUXUXUXUXUXUXUXUXUXUXUXUX",
"UXUXUXUXUXUXUXUXUXUXUXUXUXUXUXUXUXUXUXUXUXUX; > k 0 u v u z L /.K.U./.,XtXUXUXUXUXUXUXUXUXUXUXUXUXUXUXUXUXUXUXUXUXUXUXUXUXUXUXUX",
"UXUXUXUXUXUXUXUXUXUXUXUXUXUXUXUXUXUXUXUXUX9 ; > 4 k x y y u y q./.I.tX(.2XUXUXUXUXUXUXUXUXUXUXUXUXUXUXUXUXUXUXUXUXUXUXUXUXUXUXUX",
"UXUXUXUXUXUXUXUXUXUXUXUXUXUXUXUXUXUXUXUXUXj , > > N k y u z i V d.Y.d.r.UXUXUXUXUXUXUXUXUXUXUXUXUXUXUXUXUXUXUXUXUXUXUXUXUXUXUXUX",
"UXUXUXUXUXUXUXUXUXUXUXUXUXUXUXUXUXUXUXUXj H h % q v u 7 y y i y I +.z b UXUXUXUXUXUXUXUXUXUXUXUXUXUXUXUXUXUXUXUXUXUXUXUXUXUXUXUX",
"UXUXUXUXUXUXUXUXUXUXUXUXUXUXUXUXUXUXUXj j M J 0 k < k Z P ..R 7.E...b UXUXUXUXUXUXUXUXUXUXUXUXUXUXUXUXUXUXUXUXUXUXUXUXUXUXUXUXUX",
"UXUXUXUXUXUXUXUXUXUXUXUXUXUXUXUXUXUXUXj j j H E q > k Z.N.C.J.>X>Xr.UXUXUXUXUXUXUXUXUXUXUXUXUXUXUXUXUXUXUXUXUXUXUXUXUXUXUXUXUXUX",
"UXUXUXUXUXUXUXUXUXUXUXUXUXUXUXUXUXUX^ ~ ^ _ [ { q > P 0.r.B.S.S.>XI.UXUXUXUXUXUXUXUXUXUXUXUXUXUXUXUXUXUXUXUXUXUXUXUXUXUXUXUXUXUX",
"UXUXUXUXUXUXUXUXUXUXUXUXUXUXUXUXUXUXj H H H K N : x ] 5.8.9.M.V.E.UXUXUXUXUXUXUX.XdXcXwXwXeXUXUXUXUXUXUXUXUXUXUXUXUXUXUXUXUXUXUX",
"UXUXUXUXUXUXUXUXUXUXUXUXUXUXUXUXUXn h j j j H 8 > T ) 5.9.w.M.C.A.UXUXUXUXUXUX:XDXPXKX5XeXeXUXUXUXUXUXUXUXUXUXUXUXUXUXUXUXUXUXUX",
"UXUXUXUXUXUXUXUXUXUXUXUXUXUXUXUXUXh h j j H f % k ` ) 5.9.w.M.C.UXUXUXUXUXUXUX(.SXPXLXrXwXeXyXUXUXUXUXUXUXUXUXUXUXUXUXUXUXUXUXUX",
"UXUXUXUXUXUXUXUXUXUXUXUXUXUXUXUXn n M M H j : > : P ] 5.9.w.M.UXUXUXUXUXUXUX7.,XcXLXFXrXwXeXyXUXUXUXUXUXUXUXUXUXUXUXUXUXUXUXUXUX",
"UXUXUXUXUXUXUXUXUXUXUXUXUXUXUX1 9 9 9 9 9 8 : : 0 k ' 5.9.w.M.UXUXUXUXUXUX . .=.D.sXrX7XwXeXyXyXUXUXUXUXUXUXUXUXUXUXUXUXUXUXUXUX",
"UXUXUXUXUXUXUXUXUXUXUXUXUXUXUX$ @ @ @ # # # # q E P P 8.8.w.UXUXUXUXUXUXUXC A A  ...>XeXwXeXuXuXUXUXUXUXUXUXUXUXUXUXUXUXUXUXUXUX",
"UXUXUXUXUXUXUXUXUXUXUXUXUXUX3 e ; , ; , , , 8 9 E P u 5.w.w.UXUXUXUXUXUX<.<.q.1. .=.H.wXqXqX,X9X$XUXUXUXUXUXUXUXUXUXUXUXUXUXUXUX",
"UXUXUXUXUXUXUXUXUXUXUXUXUXUXQ D h f U q ; , 9 9 7 0 < v I UXUXUXUXUXUXC G  .G 1.a.y.*.1.1.p.h.*.1.}.UXUXUXUXUXUXUXUXUXUXUXUXUXUX",
"UXUXUXUXUXUXUXUXUXUXUXUXUXD Q g f M ~ f # ; % q < 7 7 r UXUXUXUXUXUXUXC C A A o.Y.| o.o.%.@.h.y.s.gXUXUXUXUXUXUXUXUXUXUXUXUXUXUX",
"UXUXUXUXUXUXUXUXUXUXUXUXUX! c c f / M j 9 # ; , t < r y UXUXUXUXUXUXUXC C A A <.a.=.o.%.%.*.1.k.9XgXgXUXUXUXUXUXUXUXUXUXUXUXUXUX",
"UXUXUXUXUXUXUXUXUXUXUXUXl g g c c ~ M j j ; : , s 7 0 UXUXUXUXUXUXUXUXC A A o.3. .a.o.%.%.*.%.+XnXgXhXUXUXUXUXUXUXUXUXUXUXUXUXUX",
"UXUXUXUXUXUXUXUXUXUXUXl l c g c g M ~ h j s # q 7 < r UXUXUXUXUXUXUXUXUXA C <.*. .a.o.@.%.*.*.{.BXuXhXjXUXUXUXUXUXUXUXUXUXUXUXUX",
"UXUXUXUXUXUXUXUXUXUXUXd l g g c h f / J H q , q > 7 UXUXUXUXUXUXUXUXUXUXUXV L <.&.1.X.%.%.*.*.g.iXgXgXjXbXUXUXUXUXUXUXUXUXUXUXUX",
"UXUXUXUXUXUXUXUXUXUX@ e l g g c c h h ~ H , 9 : > < UXUXUXUXUXUXUXUXUXUXUX-.>.'.pX| %.%.%.%.t.|.|.zXzXzXbXUXUXUXUXUXUXUXUXUXUXUX",
"UXUXUXUXUXUXUXUXUXUX@ * l g g g c n h h ; # ; f x UXUXUXUXUXUXUXUXUXUXUXUXUX-.z.aX-.| o.%.X.OX_.g.0XBXGXMXmXUXUXUXUXUXUXUXUXUXUX",
"UXUXUXUXUXUXUXUXUX1 . . e c c g n h M s # ; q Y UXUXUXUXUXUXUXUXUXUXUXUXUXUX4.4.=.aX1.p.y._.{.&.=.g.gXjXGXGXUXUXUXUXUXUXUXUXUXUX",
"UXUXUXUXUXUXUXUX2 o . @ * e w d d f s ; # ; H K UXUXUXUXUXUXUXUXUXUXUXUXUXUXUX| B x.c.&.1.|.1.1.1.1.g.g.{.VXDXUXUXUXUXUXUXUXUXUX",
"UXUXUXUXUXUXUXUXo o @ o @ @ @ @ @ @ # # # s / UXUXUXUXUXUXUXUXUXUXUXUXUXUXUXUXUX .o.'.o.t.s.*.t.t.t.y.1.{.LXmXUXUXUXUXUXUXUXUXUX",
"UXUXUXUXUXUXUX. @ o @ @ @ @ % $ % % # # , M H UXUXUXUXUXUXUXUXUXUXUXUXUXUXUXUXUXo.} '.>.u.*.*.=.1.t.p.y.k.SXFXZXUXUXUXUXUXUXUXUX",
"UXUXUXUXUXUXUXo o o @ @ @ @ @ # % # # # q H UXUXUXUXUXUXUXUXUXUXUXUXUXUXUXUXUXUXUX;.'.@.h.s.1.1.1.t.y.u.y.sXHXAXDXUXUXUXUXUXUXUX",
"UXUXUXUXUXUXo o o @ . . @ @ @ @ % @ # # 3 UXUXUXUXUXUXUXUXUXUXUXUXUXUXUXUXUXUXUXUX].:.y.p.}.s.h.1.y.y.y.|.oXNXAXDXUXUXUXUXUXUXUX",
"UXUXUXUXUXUXo o o o 1 5 1 @ $ * # # UXUXUXUXUXUXUXUXUXUXUXUXUXUXUXUXUXUXUXUXUXUXUXUXy.*.X.u.y.p.p.1.t.p.$Xu.@XHXHXJXUXUXUXUXUXUX",
"UXUXUXUXUXUXUXUXUXUXUXUXUXUXUXUXUXUXUXUXUXUXUXUXUXUXUXUXUXUXUXUXUXUXUXUXUXUXUXUXUXUXUX%.%.*.F.g.{.u.u.[.k.i.s.0XvXCXUXUXUXUXUXUX",
"UXUXUXUXUXUXUXUXUXUXUXUXUXUXUXUXUXUXUXUXUXUXUXUXUXUXUXUXUXUXUXUXUXUXUXUXUXUXUXUXUXUXUX%.%.%.t.s.{.=X=X=XoX&X&Xg.j.j.l.UXUXUXUXUX",
"UXUXUXUXUXUXUXUXUXUXUXUXUXUXUXUXUXUXUXUXUXUXUXUXUXUXUXUXUXUXUXUXUXUXUXUXUXUXUXUXUXUXUXUX%.*.=.%.%XgXgXjXmXAXHX-Xs.l.l.UXUXUXUXUX",
"UXUXUXUXUXUXUXUXUXUXUXUXUXUXUXUXUXUXUXUXUXUXUXUXUXUXUXUXUXUXUXUXUXUXUXUXUXUXUXUXUXUXUXUX%.*.%.g.uXgXgXhXbXMXZXZX_.j.l. XUXUXUXUX",
"UXUXUXUXUXUXUXUXUXUXUXUXUXUXUXUXUXUXUXUXUXUXUXUXUXUXUXUXUXUXUXUXUXUXUXUXUXUXUXUXUXUXUXUXUXi.y.9XgXgXhXhXbXZXZXHXkXg.l.l.G.UXUXUX",
"UXUXUXUXUXUXUXUXUXUXUXUXUXUXUXUXUXUXUXUXUXUXUXUXUXUXUXUXUXUXUXUXUXUXUXUXUXUXUXUXUXUXUXUXUXUXg.uXuXgXhXjXbXZXZXAXDXOXj.G.G.UXUXUX",
"UXUXUXS S o o o o 2 l p l g g c s { ~ h j H H K T E 5.v z m V V V L  .+.A C L.3X6XUXUXUXUXUX%XyXuXgXhXjXbXmXZXAXHXkXj._.G. XUXUX",
"UXUX- - 5 o o . o w d p l g g g M n.v.h j j J K T E 8.9.v V V I R b A A C X.<X1X6X6XUXUXUXUXUXuXuXgXjXhXbXZXZXZXJX-Xd.G.G.G.UXUX",
"UXO O   o - X . 2 l w l l l g g / W.W.^ h H H K T E N.5.y y z i  .A b C C L.1X1X6X6X7XUXUXUXUXnXnXVXVXBXbXMXZXHXkXd.l.l.[. X XUX",
"UXO X X & & . X 5 w p l l g g h f v.Q.[ h H H Y Y 5.m.m y k z z b +.V V #.<X<X1X3X6X7XwXUXUXUXUXuXgXgXMXGXmXZXDXXXj.G.G.G.G. X X",
"O O X o & X o . + p p l l g g g g J b.j h H H K T m.R y y i z z z L ..b I.<X<X1X6X6X7XwXUXUXUXUXUXgXjXjXFXZXHX;Xg.j.l.G.G. X X.X",
"O O O & + X o o . 2 l l l l c n h h f j j M H K ) 0.u 0 y z z z b b #.b q.<X<X1X6X7X7X7XdXUXUXUXUX9X=X8X0XkX;X.XXXXX@X XG.G. X X",
"UXO O &   o o o o @ w l l l g c h s # h j H J Y ) ( > y y t i z z A +.b C ~.1X1X3X6X7XwXlXeXUXUXUXUX1.y.y.oXh.XXl.l.[.#Xl. X XUX",
"UXa a + X X o @ * @ 1 l g g g c f 1 @ , 3 3 9 9 0 k k i z v m b z +.C C V <.1X<X6X6X6XwXlX,XUXUXUXUXp.u.u.@X{.l.h.l.j.+XOXG.UXUX",
"UXUX= + o X o 2 D 5 o * * % * 1 : @ # # # # ; : > : 6.8.5.9.M.,.Z ..b C A C T.6X6X7XwXwXlX[.$.UXUXUXUXy.{.{.{.h.j.j.l.[.#XG.UXUX",
"UXUXO & o O o & p 5 . + . @ % * 1 : # # ; ; : < > q 0.Z.N.S.S.E.q.z C C A C o.R.H.Y.Y.*X|.k.1.UXUXUXUXUXoXs.[.[.g.j.j.+X.XUXUXUX",
"UXUXO - & o o o @ @ @ @ @ @ 1 s d H s # ; % 9 9 q T ) w.B.B.S.T.S.C b C A A G F F | O.X.o.y.k.1.UXUXUXUXh.s.k.XX_. XOX@XG.UXUXUX",
"UXUXUX& -   o o + @ @ @ $ ; e h f H H , # , > ; x 8.) 5.8.9.M.N.U.2.b C A A  . .o.X.@.%.%.%.s.k.UXUXUXUXUX;XZX{.XX+X+X XUXUXUXUX",
"UXUXUXO & & . . . . @ @ . > D g h J j h # , : > 0 5.] 5.9.w.M.C.J...b C C F F F O.F o.X.@.%.*.=.1.UXUXUXUXZXvX[.s.s.d.G.UXUXUXUX",
"UXUXUXUX& & o + + @ @ @ @ * D Q Q M n f # , h N > I 5.5.9.w.S.T.e.b V C C F C a.2X.X1.1.i.i.=.1.1.UXUXUXUXUXl.g. XkXkXUXUXUXUXUX",
"UXUXUXUX& X o o . . @ @ & o 3 g f n M , # # J ` s 8 R 8.5.B.Z.M.V A V C A C #.3XdXfXg.1.i.g.s.=.1.t.UXUXUXUXUXUXUXUXUXUXUXUXUXUX",
"UXUXUXUXUXUXUXUXUXUXUXUXUXUXUXUXUXUXUXUXUXUXUXUXUXUXUXUXUXUXUXUXUXUXUXUXUXUXUXUXUXUXUXUXUXUXUXUXUXUXUXUXUXUXUXUXUXUXUXUXUXUXUXUX",
"UXUXUXUXUXUXUXUXUXUXUXUXUXUXUXUXUXUXUXUXUXUXUXUXUXUXUXUXUXUXUXUXUXUXUXUXUXUXUXUXUXUXUXUXUXUXUXUXUXUXUXUXUXUXUXUXUXUXUXUXUXUXUXUX",
"UXUXUXUXUXUXUXUXUXUXUXUXUXUXUXUXUXUXUXUXUXUXUXUXUXUXUXUXUXUXUXUXUXUXUXUXUXUXUXUXUXUXUXUXUXUXUXUXUXUXUXUXUXUXUXUXUXUXUXUXUXUXUXUX",
"UXUXUXUXUXUXUXUXUXUXUXUXUXUXUXUXUXUXUXUXUXUXUXUXUXUXUXUXUXUXUXUXUXUXUXUXUXUXUXUXUXUXUXUXUXUXUXUXUXUXUXUXUXUXUXUXUXUXUXUXUXUXUXUX",
"UXUXUXUXUXUXUXUXUXUXUXUXUXUXUXUXUXUXUXUXUXUXUXUXUXUXUXUXUXUXUXUXUXUXUXUXUXUXUXUXUXUXUXUXUXUXUXUXUXUXUXUXUXUXUXUXUXUXUXUXUXUXUXUX",
"UXUXUXUXUXUXUXUXUXUXUXUXUXUXUXUXUXUXUXUXUXUXUXUXUXUXUXUXUXUXUXUXUXUXUXUXUXUXUXUXUXUXUXUXUXUXUXUXUXUXUXUXUXUXUXUXUXUXUXUXUXUXUXUX"
};
