/* XPM */
static char *cadc45c2802d445dde6b359ff0e1f2b8[] = {
/* columns rows colors chars-per-pixel */
"16 16 107 2 ",
"   c #0C0D27",
".  c #0F0F2F",
"X  c #0F112B",
"o  c #10112D",
"O  c #13142D",
"+  c #14152D",
"@  c #0F0F30",
"#  c #0C0F3D",
"$  c #0E1036",
"%  c #0D103D",
"&  c #111331",
"*  c #11123A",
"=  c #0E1246",
"-  c #0E1A48",
";  c #0E1B4C",
":  c #131549",
">  c #16184A",
",  c #121654",
"<  c #111756",
"1  c #101E55",
"2  c #181C54",
"3  c #141758",
"4  c #12185A",
"5  c #12195A",
"6  c #12195B",
"7  c #171A58",
"8  c #181C5E",
"9  c #191C5E",
"0  c #131960",
"q  c #161A62",
"w  c #141A65",
"e  c #141C66",
"r  c #171C69",
"t  c #171C6A",
"y  c #1A1F68",
"u  c #122A61",
"i  c #1D216E",
"p  c #1D226E",
"a  c #1A2076",
"s  c #162B73",
"d  c #162B75",
"f  c #172C76",
"g  c #163475",
"h  c #153674",
"j  c #153774",
"k  c #173B7D",
"l  c #17417E",
"z  c #1B2383",
"x  c #1D2385",
"c  c #1C278F",
"v  c #1B338D",
"b  c #1B358F",
"n  c #1C358D",
"m  c #1F3A99",
"M  c #242BA4",
"N  c #184487",
"B  c #194288",
"V  c #1C4B8C",
"C  c #1A4E93",
"Z  c #1E459D",
"A  c #1D5196",
"S  c #19539F",
"D  c #1C5A9E",
"F  c #1E5E9F",
"G  c #2D649F",
"H  c #1F5FA8",
"J  c #245BAE",
"K  c #2657BA",
"L  c #1E60A4",
"P  c #1E60A5",
"I  c #1F63A8",
"U  c #2A62A1",
"Y  c #2166AB",
"T  c #2063AF",
"R  c #267ABF",
"E  c #2E7BBF",
"W  c #2D7FBF",
"Q  c #2556C1",
"!  c #2657CA",
"~  c #2A5FD2",
"^  c #2969C6",
"/  c #256ACF",
"(  c #2875C0",
")  c #2873DB",
"_  c #2C73EB",
"`  c #2F87C4",
"'  c #2D89C6",
"]  c #2E8DC8",
"[  c #2A8CCD",
"{  c #3287C5",
"}  c #3392CA",
"|  c #3493CB",
" . c #2B88D2",
".. c #35A4D7",
"X. c #38A1D2",
"o. c #36A3DA",
"O. c #3399FF",
"+. c #35A0FF",
"@. c #39B6FF",
"#. c #42BBE1",
"$. c #4ABCF1",
"%. c #3FC7F9",
"&. c #3DC8FC",
"*. c #42C9FB",
"=. c #4CE2FD",
"-. c #4BE8FF",
";. c None",
/* pixels */
";.;.;.;.;.;.;.;.;.;.;.;.;.;.;.;.",
";.;.;.;.;.;.; Z _ ;.;.;.;.;.;.;.",
";.;.;.;.;.6 1 g ^ ;.;.;.;.;.;.;.",
";.;.;.;.;.z s K J ;.;.;.;.;.;.;.",
";.;.;.;.r 0 b ! ;.;.$.@.;.;.;.;.",
";.;.;.y 3 = s ;.;.N T  .;.;.;.;.",
";.;.;.i x < - ;.;.V C F %.;.;.;.",
";.;.* 9 r 6 ;.;.;.;.U P o.;.;.;.",
";.;.. $ # e ;.;.;.;.G Y S #.;.;.",
";.;.;.;.;.;.;.;.;.;.;.P [ ..X.;.",
";.;.;.;.;.;.;.;.;.;.;.R &.-.| ;.",
"+ o 2 i M c m u g ) O.;.*.=.} E ",
"+ X > 9 < e f g j / O.;.;.' W { ",
";.& @ : q # n ~ B l I Y ;.] ' ;.",
";.;.  7 a 4 n Q k A ( D ;.;.;.;.",
";.;.;.;.;.;.;.;.;.;.;.;.;.;.;.;."
};
