/* XPM */
static char *fc3a67b7cf9a4193c8a74ba16800642a[] = {
/* columns rows colors chars-per-pixel */
"32 32 177 2 ",
"   c #0D0F26",
".  c #0E0E2C",
"X  c #0F1025",
"o  c #0E102D",
"O  c #121226",
"+  c #11122D",
"@  c #0E0E32",
"#  c #0C0E3A",
"$  c #0E1035",
"%  c #0D103D",
"&  c #131432",
"*  c #171836",
"=  c #12133B",
"-  c #0D0F40",
";  c #0D1344",
":  c #0F154C",
">  c #0F1C4E",
",  c #111442",
"<  c #161847",
"1  c #11144D",
"2  c #16194B",
"3  c #0F1F52",
"4  c #111554",
"5  c #121B54",
"6  c #181B50",
"7  c #131A5B",
"8  c #0F2253",
"9  c #102054",
"0  c #11235B",
"q  c #10285B",
"w  c #151A65",
"e  c #1A1E65",
"r  c #151A68",
"t  c #191E6C",
"y  c #171C70",
"u  c #181E76",
"i  c #1A1F7A",
"p  c #132465",
"a  c #1C2063",
"s  c #122A64",
"d  c #14256A",
"f  c #1C206B",
"g  c #14356D",
"h  c #152771",
"j  c #1C2174",
"k  c #1A237C",
"l  c #153472",
"z  c #153A75",
"x  c #163278",
"c  c #1A337E",
"v  c #163C7B",
"b  c #1C2383",
"n  c #1A2B84",
"m  c #1C268A",
"M  c #1B298A",
"N  c #1A3384",
"B  c #183C80",
"V  c #1B3B8E",
"C  c #1E2592",
"Z  c #1E2D96",
"A  c #1C3791",
"S  c #1E369C",
"D  c #222A97",
"F  c #1F3EA3",
"G  c #213CA2",
"H  c #2A32B7",
"J  c #2831B9",
"K  c #164281",
"L  c #184887",
"P  c #16478E",
"I  c #1A4489",
"U  c #15488A",
"Y  c #1E4D89",
"T  c #144891",
"R  c #1A4C92",
"E  c #1E4C9A",
"W  c #1B5295",
"Q  c #1C539B",
"!  c #1C5A9C",
"~  c #204D9D",
"^  c #1754A2",
"/  c #1D5DA4",
"(  c #2040A5",
")  c #2242AD",
"_  c #2148AB",
"`  c #2256A4",
"'  c #215DAB",
"]  c #2243B0",
"[  c #224AB2",
"{  c #244DBA",
"}  c #2255B7",
"|  c #2450BB",
" . c #1F61A7",
".. c #1E63AA",
"X. c #2061A7",
"o. c #2A65A7",
"O. c #2F68A5",
"+. c #2164AC",
"@. c #236AAD",
"#. c #3B6EA4",
"$. c #3B71AB",
"%. c #2463B5",
"&. c #226CB2",
"*. c #2962BC",
"=. c #2471B5",
"-. c #2673B9",
";. c #2A76BB",
":. c #267CBE",
">. c #2B7DBE",
",. c #3A74B3",
"<. c #2933C0",
"1. c #2555C4",
"2. c #265ACC",
"3. c #295ECA",
"4. c #2362C2",
"5. c #2961CB",
"6. c #2762D5",
"7. c #2A64D0",
"8. c #2B6EDA",
"9. c #2A6FE4",
"0. c #2C72E4",
"q. c #287EE3",
"w. c #317BE2",
"e. c #2E7DF3",
"r. c #2783C6",
"t. c #2D82C2",
"y. c #3183C3",
"u. c #318AC6",
"i. c #308FC9",
"p. c #3296CD",
"a. c #319BD5",
"s. c #329DDA",
"d. c #3B9EDB",
"f. c #37A3D5",
"g. c #39A4D3",
"h. c #32A0DF",
"j. c #38AAD9",
"k. c #3FB8DF",
"l. c #2D8CE9",
"z. c #348AEE",
"x. c #369AED",
"c. c #2E83F3",
"v. c #2F86FE",
"b. c #2F8FFA",
"n. c #318BFF",
"m. c #3590F3",
"M. c #3194FE",
"N. c #339EFE",
"B. c #32A0E4",
"V. c #39A6E9",
"C. c #34A8EF",
"Z. c #37B8EE",
"A. c #3CBDE8",
"S. c #34A4FD",
"D. c #38A9FF",
"F. c #3AB9FE",
"G. c #41B0DB",
"H. c #4CBCEA",
"J. c #43B4FF",
"K. c #41BAFB",
"L. c #3DC3FD",
"P. c #3CCAFD",
"I. c #3ED0FE",
"U. c #4CCDEE",
"Y. c #48D0EB",
"T. c #45C0FE",
"R. c #42C8FD",
"E. c #48D9F5",
"W. c #47D4FD",
"Q. c #45D9FB",
"!. c #49DFFD",
"~. c #56D0FC",
"^. c #4CE3FD",
"/. c #51EDFE",
"(. c #59F4FF",
"). c #6FEEFE",
"_. c None",
/* pixels */
"_._._._._._._._._._._._._._._._._._._._._._._._._._._._._._._._.",
"_._._._._._._._._._._._._._._._._._._._._._._._._._._._._._._._.",
"_._._._._._._._._._._._.> > x 2.6.9._._._._._._._._._._._._._._.",
"_._._._._._._._._._._.> 4 8 l 3.6.9.e._._._._._._._._._._._._._.",
"_._._._._._._._._._._.; 7 p q E 0.z.m._._._._._._._._._._._._._.",
"_._._._._._._._._._.i 4 0 0 8 s ` Q _._._._._._._._._._._._._._.",
"_._._._._._._._._._.b M 3 c _ *.*._._._._._._._._._._._._._._._.",
"_._._._._._._._._.b C Z 9 F 1.7.w._._._.d.J._._._._._._._._._._.",
"_._._._._._._._.k i b 4 h ) [ 1._._._.q.).~.S._._._._._._._._._.",
"_._._._._._._._.7 e w ; d ) { 1._._._.' H.R.S.F._._._._._._._._.",
"_._._._._._._.2 % - - 4 n A | _._._.R I P l.D.C._._._._._._._._.",
"_._._._._._._.j k u % 5 3 0 _._._._.v W ..W  ...r._._._._._._._.",
"_._._._._._.j f k b 1 ; 7 3 _._._._.z R ` R R =.R.P._._._._._._.",
"_._._._._._.e t u m y : > _._._._._.v R Q W R @.R.P._._._._._._.",
"_._._._._., f t u k 4 1 7 _._._._._._.$.,.U ! =.s.!.!._._._._._.",
"_._._._.= . 6 e t 7 # k _._._._._._._.T #.o.@.@...a.U._._._._._.",
"_._._._.. . $ $ # $ 7 _._._._._._._._._.Y #. .Q ..^ j.(._._._._.",
"_._._.o @ @ $ $ # % r _._._._._._._._._._.O.&.@./ ..i./._._._._.",
"_._._.o . 2 = $ _._._._._._._._._._._._._.Q ! -.&.&.&.f./._._._.",
"_._._._._._._._._._._._._._._._._._._._._._.W / h.Z.A.j.-.t._._.",
"_._._._._._._._._._._._._._._._._._._._._._.W =.P.I.^./.u.;._._.",
"_._._._._._._._._._._._._._._._._._._._._._._.B.L.P.Q./.Y.;.y._.",
"_.& *   2 a f e H J u M S _ s l B g E v.M._._._.R.W.Q./.G.;.y._.",
"O X o . 6 a e e D J k b ) N 0 s v z 8.n.M.N._._.L.W./.E.>.>.y.y.",
"O & +   @ a f j t w k M G 3 0 q z v 4.n.b.S.K._._.r.f.p.t.u.y.y.",
"_.*   & 2 , 6 6 , # 1 : 3 N V V v z K c.M.D.V._._./ :.t.-.t.u._.",
"_.& + + < . @ , 7 , # ; p { 2.8.E g v W +.%.@.@._._.>.t.>.u.u._.",
"_._.& o . @ = t b y ; ; N ] [ 2.} g v v K L W +._._._.j.>.u._._.",
"_._.+ o o @ $ t k w ; k p F | 5.B z z %.x.X.+./ / _._.-.g._._._.",
"_._._._._._._._._._._._._._._._._._._._._._._._._._._._._._._._.",
"_._._._._._._._._._._._._._._._._._._._._._._._._._._._._._._._.",
"_._._._._._._._._._._._._._._._._._._._._._._._._._._._._._._._."
};
